<svg width="25" height="20" viewBox="0 0 25 20" fill="none" xmlns="http://www.w3.org/2000/svg">
<g id="Group 1000005287">
<circle id="Ellipse 65" cx="12.5" cy="11" r="4" fill="#1675FF"/>
<path id="Subtract" fill-rule="evenodd" clip-rule="evenodd" d="M6.08067 2.44167C5.7081 2.79991 5.21131 3 4.69445 3H4.5C2.29086 3 0.5 4.79086 0.5 7V16C0.5 18.2091 2.29086 20 4.5 20H20.5C22.7091 20 24.5 18.2091 24.5 16V7C24.5 4.79086 22.7091 3 20.5 3H19.3055C18.7887 3 18.2919 2.79991 17.9193 2.44167L15.9607 0.558334C15.5881 0.200095 15.0913 0 14.5744 0H9.42555C8.90869 0 8.4119 0.200095 8.03933 0.558334L6.08067 2.44167ZM12.5 17C15.8137 17 18.5 14.3137 18.5 11C18.5 7.68629 15.8137 5 12.5 5C9.18629 5 6.5 7.68629 6.5 11C6.5 14.3137 9.18629 17 12.5 17Z" fill="#1675FF"/>
</g>
</svg>
