<svg width="23" height="22" viewBox="0 0 23 22" fill="none" xmlns="http://www.w3.org/2000/svg">
<g id="Group 1000005286">
<g id="Group 1000005285">
<path id="Subtract" fill-rule="evenodd" clip-rule="evenodd" d="M1.67157 1.17157C0.5 2.34315 0.5 4.22876 0.5 8V14C0.5 17.7712 0.5 19.6569 1.67157 20.8284C2.84315 22 4.72876 22 8.5 22H14.5C18.2712 22 20.1569 22 21.3284 20.8284C22.5 19.6569 22.5 17.7712 22.5 14V8C22.5 5.06901 22.5 3.27699 21.95 2.07396V16.5C20.8935 16.5 19.8803 16.0803 19.1333 15.3333L18.3064 14.5064C17.3784 13.5784 16.9144 13.1144 16.3644 12.9831C16.0591 12.9102 15.7409 12.9102 15.4356 12.9831C14.8856 13.1144 14.4216 13.5784 13.4936 14.5064L13.3691 14.6309C12.6282 15.3718 12.2577 15.7423 11.8523 15.7484C11.715 15.7504 11.5787 15.7242 11.452 15.6713C11.0779 15.5151 10.8715 15.0335 10.4587 14.0704L10.4 13.9333L10.4 13.9333C9.46539 11.7526 8.99809 10.6622 8.11069 10.3906C7.97446 10.3489 7.83415 10.3219 7.69218 10.31C6.76738 10.2326 5.92854 11.0715 4.25088 12.7491L2.15 14.85V0.782684C1.97767 0.895325 1.81897 1.02418 1.67157 1.17157Z" fill="#1675FF"/>
<path id="Rectangle 1" d="M1.5 8C1.5 6.08611 1.50212 4.75129 1.63753 3.74416C1.76907 2.76579 2.00966 2.2477 2.37868 1.87868C2.7477 1.50966 3.26579 1.26907 4.24416 1.13753C5.25129 1.00212 6.58611 1 8.5 1H14.5C16.4139 1 17.7487 1.00212 18.7558 1.13753C19.7342 1.26907 20.2523 1.50966 20.6213 1.87868L21.3112 1.18882L20.6213 1.87868C20.9903 2.2477 21.2309 2.76579 21.3625 3.74416C21.4979 4.75129 21.5 6.08611 21.5 8V14C21.5 15.9139 21.4979 17.2487 21.3625 18.2558C21.2309 19.2342 20.9903 19.7523 20.6213 20.1213C20.2523 20.4903 19.7342 20.7309 18.7558 20.8625C17.7487 20.9979 16.4139 21 14.5 21H8.5C6.58611 21 5.25129 20.9979 4.24416 20.8625C3.26579 20.7309 2.7477 20.4903 2.37868 20.1213L1.68882 20.8112L2.37868 20.1213C2.00966 19.7523 1.76907 19.2342 1.63753 18.2558C1.50212 17.2487 1.5 15.9139 1.5 14V8Z" stroke="#1675FF" stroke-width="2"/>
</g>
<circle id="Ellipse 46" cx="14.8001" cy="7.7" r="2.2" fill="#1675FF"/>
</g>
</svg>
