<svg width="25" height="24" viewBox="0 0 25 24" fill="none" xmlns="http://www.w3.org/2000/svg">
<g id="icon_text field good">
<path id="Vector" d="M23.5742 12.0068C24.9837 12.9987 24.7226 15.0868 23.2087 15.8699C23.9918 17.175 22.9999 18.8977 21.6426 19.2631C21.8514 19.6285 21.9559 19.9417 21.9037 20.3072C21.6948 21.8211 20.0243 22.0821 18.7714 22.0821H11.9328C9.21822 22.0821 7.86093 20.5682 7.86093 19.3153V12.8943C7.86093 9.50106 11.6718 6.62987 11.6718 4.22851L11.3586 1.30512C11.3586 1.14851 11.3586 0.678674 11.5152 0.574268C11.724 0.365454 12.3504 3.05176e-05 13.2379 3.05176e-05C13.8121 3.05176e-05 14.2297 0.10444 14.6996 0.365457C16.2657 1.14851 16.4745 3.08003 16.4745 4.64614C16.4745 5.37698 15.5348 7.62173 15.4304 8.40478C16.6311 7.98715 19.4501 7.51732 21.6426 7.83054C24.2006 8.19597 24.9315 9.91868 23.5742 12.0068ZM2.11855 9.55326H4.31109C4.72872 9.55326 5.14635 9.70987 5.45957 10.0231C5.77279 10.3363 5.9294 10.7539 5.9294 11.1716V21.6645C5.9294 22.0821 5.77279 22.4997 5.45957 22.8129C5.14635 23.1262 4.72872 23.2828 4.31109 23.2828H2.11855C1.70092 23.2828 1.2833 23.1262 0.970076 22.8129C0.656855 22.4997 0.500244 22.0821 0.500244 21.6645V11.1716C0.500244 10.7539 0.656855 10.3363 0.970076 10.0231C1.2833 9.70987 1.70092 9.55326 2.11855 9.55326Z" fill="#1675FF"/>
</g>
</svg>
